<svg width="30" height="30" viewBox="0 0 30 30" fill="none" xmlns="http://www.w3.org/2000/svg">
<path d="M30 3.33333C30 2.44928 29.6488 1.60143 29.0237 0.976311C28.3986 0.351189 27.5507 0 26.6667 0H3.33333C2.44928 0 1.60143 0.351189 0.976311 0.976311C0.351189 1.60143 0 2.44928 0 3.33333V26.6667C0 27.5507 0.351189 28.3986 0.976311 29.0237C1.60143 29.6488 2.44928 30 3.33333 30H26.6667C27.5507 30 28.3986 29.6488 29.0237 29.0237C29.6488 28.3986 30 27.5507 30 26.6667V3.33333ZM22.0117 19.655L19.655 22.0117L15 17.3567L10.345 22.0117L7.98833 19.655L12.6433 15L7.98833 10.345L10.345 7.98833L15 12.6433L19.655 7.98833L22.0117 10.345L17.3567 15L22.0117 19.655Z" fill="white"/>
</svg>
