<svg width="24" height="19" viewBox="0 0 24 19" fill="none" xmlns="http://www.w3.org/2000/svg">
<path d="M4 2V15.7647H3V17.2941H7V15.7647H6V11.9412H19C19.2652 11.9412 19.5196 11.8606 19.7071 11.7172C19.8946 11.5738 20 11.3793 20 11.1765V3.52941C20 3.3266 19.8946 3.13209 19.7071 2.98868C19.5196 2.84527 19.2652 2.76471 19 2.76471H6V2H4ZM8 4.29412V5.82353H10V4.29412H12V5.82353H14V4.29412H16V5.82353H18V7.35294H16V8.88235H18V10.4118H16V8.88235H14V10.4118H12V8.88235H10V10.4118H8V8.88235H6V7.35294H8V5.82353H6V4.29412H8Z" fill="url(#paint0_linear_409_351)"/>
<path d="M8 7.35294H10V8.88235H8V7.35294ZM12 7.35294H14V8.88235H12V7.35294ZM10 5.82353H12V7.35294H10V5.82353ZM14 5.82353H16V7.35294H14V5.82353Z" fill="url(#paint1_linear_409_351)"/>
<defs>
<linearGradient id="paint0_linear_409_351" x1="22.3699" y1="19.6376" x2="-19.3041" y2="16.0847" gradientUnits="userSpaceOnUse">
<stop stop-color="#BE8D34"/>
<stop offset="1" stop-color="#FEE3B2"/>
</linearGradient>
<linearGradient id="paint1_linear_409_351" x1="22.3699" y1="19.6376" x2="-19.3041" y2="16.0847" gradientUnits="userSpaceOnUse">
<stop stop-color="#BE8D34"/>
<stop offset="1" stop-color="#FEE3B2"/>
</linearGradient>
</defs>
</svg>
