<svg width="16" height="13" viewBox="0 0 16 13" fill="none" xmlns="http://www.w3.org/2000/svg">
<path d="M14.4 0H1.6C1.17565 0 0.768687 0.171205 0.468629 0.475951C0.168571 0.780698 0 1.19402 0 1.625V11.375C0 11.806 0.168571 12.2193 0.468629 12.524C0.768687 12.8288 1.17565 13 1.6 13H14.4C14.8243 13 15.2313 12.8288 15.5314 12.524C15.8314 12.2193 16 11.806 16 11.375V1.625C16 1.19402 15.8314 0.780698 15.5314 0.475951C15.2313 0.171205 14.8243 0 14.4 0ZM14.4 3.81875L8 8.15263L1.6 3.81875V1.86631L8 6.19938L14.4 1.86631V3.81875Z" fill="#EFEFEF" fill-opacity="0.5"/>
</svg>
