<svg width="25" height="25" viewBox="0 0 25 25" fill="none" xmlns="http://www.w3.org/2000/svg">
<path d="M12.4998 2.89996C7.19818 2.89996 2.89978 7.19836 2.89978 12.5C2.89978 14.6024 3.57658 16.5488 4.72618 18.1304L3.40618 21.6008L7.21498 20.516C8.72938 21.5168 10.5462 22.1 12.4998 22.1C17.8014 22.1 22.0998 17.8016 22.0998 12.5C22.0998 7.19836 17.8014 2.89996 12.4998 2.89996ZM17.6022 16.4768L16.5798 17.4992C15.5046 18.5744 12.6534 17.3912 10.1262 14.864C7.59658 12.3344 6.46618 9.48316 7.48858 8.40796L8.51098 7.38556C8.88778 7.00876 9.53338 7.00876 9.96298 7.38556L11.4702 8.89276C12.0078 9.43036 11.7918 10.3448 11.0934 10.5584C10.6086 10.7216 10.287 11.2592 10.4478 11.744C10.7166 12.872 12.1686 14.2712 13.2462 14.54C13.7286 14.648 14.2686 14.3792 14.4294 13.8944C14.643 13.196 15.5598 12.98 16.0974 13.5176L17.6022 15.0248C17.979 15.4016 17.979 16.0472 17.6022 16.4768Z" fill="white"/>
</svg>
