<svg width="69" height="53" viewBox="0 0 69 53" fill="none" xmlns="http://www.w3.org/2000/svg">
<g clip-path="url(#clip0_27_20)">
<path d="M0 52.6722C0.125781 52.654 0.233594 52.5812 0.305469 52.472C0.377344 52.3628 0.449219 52.2354 0.521094 52.0898L3.30625 46.1746C3.37812 46.0472 3.43203 45.9198 3.48594 45.8106C3.53984 45.7014 3.57578 45.6104 3.57578 45.5194C3.57578 45.4102 3.53984 45.3556 3.46797 45.301C3.39609 45.2646 3.32422 45.2282 3.23438 45.21V44.937H5.76797V45.21C5.69609 45.2282 5.62422 45.2646 5.55234 45.301C5.48047 45.3374 5.44453 45.4102 5.44453 45.5194C5.44453 45.5922 5.4625 45.6832 5.49844 45.756C5.53438 45.8288 5.58828 45.938 5.66016 46.0836L8.78672 52.2718C8.84062 52.381 8.9125 52.472 8.98438 52.5084C9.07422 52.563 9.16406 52.6176 9.27187 52.654V52.9271H6.66641V52.654C6.70234 52.654 6.75625 52.6358 6.81016 52.5994C6.86406 52.563 6.9 52.5266 6.9 52.4538C6.9 52.3446 6.86406 52.2172 6.77422 52.0534L6.19922 50.925H2.53359L1.99453 51.9988C1.88672 52.2172 1.85078 52.3628 1.85078 52.4538C1.85078 52.563 1.94062 52.6176 2.13828 52.6176V52.8907H0V52.6722ZM5.66016 49.8512L4.40234 47.0119L2.98281 49.8512H5.66016Z" fill="white"/>
<path d="M13.0993 50.4335L13.2431 50.5063C13.2431 50.5973 13.261 50.6701 13.297 50.7429C13.3688 50.8703 13.5126 50.9795 13.7103 51.1069C13.9079 51.2161 14.1595 51.3253 14.411 51.4163C14.6806 51.5073 14.9501 51.5801 15.2376 51.6347C15.5251 51.6893 15.7946 51.7257 16.0282 51.7257C16.1899 51.7257 16.4235 51.7075 16.6931 51.6893C16.9626 51.6711 17.2321 51.6165 17.4837 51.5255C17.7353 51.4527 17.9688 51.3253 18.1665 51.1979C18.3642 51.0523 18.454 50.8703 18.454 50.6337C18.454 50.3971 18.3642 50.2333 18.1845 50.1241C18.0048 50.0149 17.7712 49.9239 17.5017 49.8875C17.2142 49.8329 16.8907 49.7965 16.5313 49.7965C16.172 49.7783 15.7946 49.7601 15.4173 49.7237C15.0399 49.6873 14.6626 49.6509 14.3032 49.5781C13.9438 49.5053 13.6204 49.3961 13.3329 49.2141C13.0454 49.0502 12.8118 48.8136 12.6501 48.5224C12.4704 48.2312 12.3806 47.849 12.3806 47.394C12.3806 47.0846 12.4524 46.7752 12.5962 46.4658C12.7399 46.1564 12.9556 45.8834 13.261 45.6649C13.5665 45.4283 13.9438 45.2463 14.411 45.1007C14.8782 44.9551 15.4173 44.8823 16.0282 44.8823C16.5673 44.8823 17.0165 44.9187 17.4118 45.0097C17.8071 45.0825 18.1485 45.1735 18.4181 45.2645C18.7056 45.3555 18.9392 45.4465 19.1368 45.5193C19.3345 45.5921 19.4962 45.6467 19.622 45.6467C19.7657 45.6467 19.8556 45.6103 19.9274 45.5557L20.1071 45.6831L19.0649 47.5942L18.9212 47.5396C18.9032 47.394 18.8673 47.2848 18.7954 47.1938C18.7235 47.0664 18.5798 46.9572 18.4001 46.8298C18.2204 46.7206 18.0048 46.6114 17.7532 46.5204C17.5017 46.4294 17.2321 46.3566 16.9446 46.302C16.6571 46.2474 16.3696 46.211 16.0642 46.211C15.8485 46.211 15.6149 46.2292 15.3813 46.2656C15.1478 46.302 14.9321 46.3566 14.7345 46.4294C14.5368 46.5022 14.3931 46.5932 14.2673 46.7024C14.1415 46.8116 14.0876 46.9572 14.0876 47.1392C14.0876 47.3758 14.1774 47.5578 14.3571 47.6852C14.5368 47.8126 14.7704 47.9036 15.0399 47.9582C15.3274 48.0128 15.6509 48.0674 16.0103 48.0856C16.3696 48.1038 16.747 48.1402 17.1243 48.1584C17.5017 48.1948 17.879 48.2494 18.2384 48.3222C18.5978 48.395 18.9212 48.5224 19.2087 48.6862C19.4962 48.85 19.7298 49.0867 19.8915 49.3597C20.0712 49.6509 20.161 50.0149 20.161 50.4699C20.161 50.9977 20.0173 51.4345 19.7478 51.7621C19.4782 52.0897 19.1368 52.3627 18.7235 52.563C18.3103 52.7632 17.861 52.8906 17.3938 52.9452C16.9087 53.018 16.4774 53.0362 16.0642 53.0362C15.4892 53.0362 15.022 52.9998 14.6267 52.9452C14.2493 52.8724 13.9259 52.7996 13.6563 52.7086C13.4048 52.6176 13.1892 52.5266 13.0454 52.4538C12.9017 52.381 12.7579 52.3445 12.6501 52.3445C12.5782 52.3445 12.5063 52.3809 12.4524 52.472L12.2368 52.3445L13.0993 50.4335Z" fill="white"/>
<path d="M31.2296 47.4121L30.9241 47.3211C30.9421 47.2665 30.9601 47.1937 30.9601 47.1391C30.9601 46.9935 30.8702 46.8479 30.6905 46.7204C30.5108 46.593 30.2772 46.502 29.9897 46.411C29.7022 46.32 29.3968 46.2654 29.0554 46.229C28.714 46.1926 28.4085 46.1744 28.103 46.1744C27.7257 46.1744 27.3663 46.229 27.0069 46.3382C26.6476 46.4474 26.3241 46.6112 26.0366 46.8296C25.7491 47.0481 25.5155 47.3393 25.3538 47.7033C25.1741 48.0673 25.0843 48.4859 25.0843 48.9955C25.0843 49.4869 25.1741 49.9237 25.3538 50.2878C25.5335 50.6518 25.7671 50.943 26.0366 51.1614C26.3241 51.3798 26.6476 51.5436 27.0069 51.6528C27.3663 51.762 27.7437 51.8166 28.103 51.8166C28.678 51.8166 29.1812 51.762 29.6483 51.671C30.0976 51.58 30.4929 51.4708 30.8163 51.3616V50.0511H28.8937C28.7499 50.0511 28.6421 50.0875 28.5702 50.1421C28.4983 50.1968 28.4624 50.3424 28.4265 50.5426H28.1569V48.5951H28.4265C28.4444 48.7589 28.4983 48.8681 28.5702 48.9227C28.6421 48.9773 28.7499 48.9955 28.8937 48.9955H32.6491V49.2685C32.4515 49.3049 32.3257 49.3413 32.2718 49.3777C32.2179 49.4141 32.1999 49.5051 32.1999 49.6325V51.3616C32.1999 51.4708 32.2358 51.5254 32.2897 51.5618C32.3437 51.5982 32.4155 51.6346 32.5054 51.671V51.9076C32.1819 52.1442 31.8226 52.3262 31.4632 52.49C31.1038 52.6356 30.7265 52.763 30.3491 52.854C29.9718 52.945 29.5944 52.9996 29.2171 53.0178C28.8397 53.036 28.4804 53.0542 28.121 53.0542C27.4202 53.0542 26.7733 52.9632 26.1983 52.7812C25.6233 52.5992 25.1202 52.3444 24.7249 51.9804C24.3116 51.6346 23.9882 51.1978 23.7726 50.7064C23.539 50.1968 23.4312 49.6325 23.4312 48.9955C23.4312 48.3585 23.539 47.7761 23.7726 47.2847C24.0062 46.775 24.3116 46.3564 24.7249 45.9924C25.1382 45.6284 25.6233 45.3736 26.1983 45.1734C26.7733 44.9914 27.4202 44.9004 28.121 44.9004C28.5702 44.9004 28.9835 44.9368 29.3788 44.9914C29.7741 45.046 30.1335 45.1188 30.439 45.1916C30.7444 45.2644 31.014 45.3372 31.2116 45.41C31.4093 45.4828 31.553 45.501 31.589 45.501C31.6788 45.501 31.7507 45.4828 31.8046 45.4464C31.8585 45.41 31.9124 45.3736 31.9483 45.3372L32.128 45.4464L31.2296 47.4121Z" fill="white"/>
<path d="M35.4163 52.6722C35.5421 52.654 35.6499 52.5812 35.7218 52.472C35.7937 52.3628 35.8655 52.2354 35.9374 52.0898L38.7226 46.1746C38.7944 46.0472 38.8483 45.9198 38.9022 45.8106C38.9562 45.7014 38.9921 45.6104 38.9921 45.5194C38.9921 45.4102 38.9562 45.3556 38.8843 45.301C38.8124 45.2646 38.7405 45.2282 38.6507 45.21V44.937H41.1843V45.21C41.1124 45.2282 41.0405 45.2646 40.9687 45.301C40.8968 45.3374 40.8608 45.4102 40.8608 45.5194C40.8608 45.5922 40.8788 45.6832 40.9147 45.756C40.9507 45.8288 41.0046 45.938 41.0765 46.0836L44.203 52.2718C44.2569 52.381 44.3288 52.472 44.4007 52.5084C44.4905 52.563 44.5804 52.6176 44.6882 52.654V52.9271H42.0468V52.654C42.0827 52.654 42.1366 52.6358 42.1905 52.5994C42.2444 52.563 42.2804 52.5266 42.2804 52.4538C42.2804 52.3446 42.2444 52.2172 42.1546 52.0534L41.5796 50.925H37.914L37.3749 51.9988C37.2671 52.2172 37.2312 52.3628 37.2312 52.4538C37.2312 52.563 37.321 52.6176 37.5187 52.6176V52.8907H35.3804V52.6722H35.4163ZM41.0765 49.8512L39.8187 47.0119L38.3991 49.8512H41.0765Z" fill="white"/>
<path d="M52.9718 44.9368C53.457 44.9368 53.8882 44.9732 54.2835 45.0642C54.6789 45.1552 55.0023 45.2826 55.2898 45.4828C55.5773 45.6648 55.7929 45.9196 55.9367 46.2108C56.0804 46.502 56.1703 46.8843 56.1703 47.3211C56.1703 47.9945 55.9726 48.5041 55.5773 48.8499C55.182 49.2139 54.6609 49.4505 53.996 49.5597L55.9906 52.4536C56.0624 52.5628 56.1343 52.6174 56.2421 52.6356C56.332 52.6538 56.4218 52.672 56.5117 52.672V52.945H53.7085V52.672C53.7984 52.672 53.8703 52.6538 53.9421 52.6174C54.014 52.581 54.032 52.5446 54.032 52.49C54.032 52.4354 54.014 52.3808 53.9781 52.308C53.9421 52.2352 53.8703 52.1442 53.7984 52.035L52.1453 49.6507H49.989V52.3626C49.989 52.4536 50.025 52.5264 50.0789 52.5628C50.1507 52.6174 50.2585 52.6356 50.4382 52.6356V52.9086H47.8328V52.6356C48.1203 52.6356 48.264 52.5446 48.264 52.3626V45.4464C48.264 45.2644 48.1203 45.1734 47.8328 45.1734V44.9004H52.9718V44.9368ZM52.5765 48.5041C52.9359 48.5041 53.2414 48.4677 53.4749 48.4131C53.7085 48.3585 53.9062 48.2857 54.0499 48.1765C54.1937 48.0673 54.2835 47.9581 54.3554 47.8125C54.4093 47.6669 54.4453 47.5213 54.4453 47.3575C54.4453 47.1937 54.4093 47.0481 54.3554 46.9025C54.3015 46.7568 54.1937 46.6476 54.0499 46.5384C53.9062 46.4292 53.7265 46.3564 53.4749 46.3018C53.2414 46.2472 52.9359 46.2108 52.5765 46.2108H49.971V48.4677H52.5765V48.5041Z" fill="white"/>
<path d="M65.0827 44.937C65.6397 44.937 66.1429 45.0098 66.628 45.1736C67.0952 45.3374 67.5085 45.574 67.8679 45.9198C68.2272 46.2475 68.4968 46.6661 68.6944 47.1757C68.8921 47.6853 68.9999 48.2677 68.9999 48.9411C68.9999 49.6146 68.8921 50.2152 68.6944 50.7066C68.4968 51.2162 68.2272 51.6166 67.8679 51.9624C67.5085 52.29 67.0952 52.5448 66.628 52.7086C66.1608 52.8725 65.6397 52.9453 65.0827 52.9453H60.0874V52.6722C60.321 52.6722 60.4288 52.5812 60.4288 52.3992V45.483C60.4288 45.301 60.321 45.21 60.0874 45.21V44.937H65.0827ZM64.4897 51.6348C64.9569 51.6348 65.3702 51.5984 65.7296 51.5074C66.089 51.4346 66.3765 51.289 66.6101 51.0706C66.8437 50.8704 67.0054 50.5792 67.1312 50.2334C67.239 49.8876 67.3108 49.4507 67.3108 48.9229C67.3108 48.3951 67.2569 47.9583 67.1312 47.6125C67.0233 47.2667 66.8437 46.9937 66.6101 46.7753C66.3765 46.5751 66.089 46.4295 65.7296 46.3385C65.3702 46.2657 64.9749 46.2111 64.4897 46.2111H62.1538V51.5984H64.4897V51.6348Z" fill="white"/>
<path d="M34.3381 0C23.7904 0 15.2373 8.66346 15.2373 19.3472C15.2373 22.2957 15.8842 25.0804 17.0521 27.5738C17.124 27.5374 17.2139 27.5192 17.2857 27.4828C17.3396 27.4282 17.4115 27.3736 17.4654 27.319C16.3514 24.8984 15.7225 22.1865 15.7225 19.329C15.7225 8.91827 24.06 0.491415 34.3381 0.491415C44.6162 0.491415 52.9537 8.93647 52.9537 19.3472C52.9537 22.2411 52.3068 24.9712 51.1568 27.4282C51.2826 27.5374 51.4084 27.6466 51.5342 27.7558C52.7561 25.2078 53.4389 22.3685 53.4389 19.3472C53.4209 8.66346 44.8857 0 34.3381 0Z" fill="url(#paint0_linear_27_20)"/>
<path d="M53.5107 32.1787V37.6571C54.1217 37.9483 54.7326 38.2577 55.3256 38.5853V33.4527C54.7146 33.0341 54.1217 32.6155 53.5107 32.1787Z" fill="url(#paint1_linear_27_20)"/>
<path d="M50.6357 36.3829C51.1029 36.5831 51.5881 36.7651 52.0553 36.9836V31.0866C51.5701 30.7226 51.1029 30.3404 50.6357 29.9399V36.3829Z" fill="url(#paint2_linear_27_20)"/>
<path d="M47.7788 35.3271C48.246 35.4727 48.7132 35.6365 49.1804 35.8003V28.6293C48.7132 28.2107 48.246 27.7739 47.7788 27.3188V35.3271Z" fill="url(#paint3_linear_27_20)"/>
<path d="M44.9397 34.5082C45.4069 34.6174 45.8561 34.7448 46.3233 34.8904V25.8811C45.8561 25.3897 45.4069 24.8983 44.9397 24.3887V34.5082Z" fill="url(#paint4_linear_27_20)"/>
<path d="M22.0117 34.8903C22.4789 34.7629 22.9461 34.6173 23.4312 34.5081V24.4614C22.9641 24.971 22.4969 25.4807 22.0117 25.9721V34.8903Z" fill="url(#paint5_linear_27_20)"/>
<path d="M19.1726 35.8187C19.6218 35.6549 20.089 35.4911 20.5562 35.3455V27.4282C20.107 27.865 19.6398 28.2836 19.1726 28.7023V35.8187Z" fill="url(#paint6_linear_27_20)"/>
<path d="M16.2795 36.9833C16.7467 36.7831 17.2319 36.5829 17.6991 36.3827V29.9761C17.2319 30.3583 16.7467 30.7405 16.2795 31.1227V36.9833Z" fill="url(#paint7_linear_27_20)"/>
<path d="M13.0093 38.5668C13.6022 38.2392 14.2132 37.948 14.8241 37.6386V32.2148C14.2312 32.6517 13.6202 33.0703 13.0093 33.4707V38.5668Z" fill="url(#paint8_linear_27_20)"/>
<path d="M30.6187 33.507C32.164 33.3068 34.7874 33.143 37.7343 33.5252C35.2187 30.3219 34.1765 28.1196 34.1765 28.1196C34.1765 28.1196 33.1163 30.3037 30.6187 33.507Z" fill="#CA973B"/>
<path d="M42.0647 32.2512C42.5319 32.688 43.017 33.1066 43.4842 33.507V22.6777C42.9991 22.0953 42.5319 21.4947 42.0647 20.894V32.2512Z" fill="url(#paint9_linear_27_20)"/>
<path d="M39.2078 29.4123C39.657 29.9037 40.1421 30.3951 40.6093 30.8683V18.8924C40.1242 18.2008 39.657 17.5091 39.2078 16.7993V29.4123Z" fill="url(#paint10_linear_27_20)"/>
<path d="M36.3867 25.9539C36.818 26.5545 37.2672 27.1551 37.7344 27.7375V14.3965C37.2672 13.5957 36.818 12.7767 36.3867 11.9395V25.9539Z" fill="url(#paint11_linear_27_20)"/>
<path d="M34.9312 23.606V8.99092C34.3921 7.80788 33.871 6.62484 33.4038 5.38721V23.6606C33.6913 23.1327 33.9608 22.6049 34.1944 22.0771C34.3921 22.5867 34.6437 23.0963 34.9312 23.606Z" fill="#CA973B"/>
<path d="M31.9305 12.2124C31.4812 13.0496 31.0141 13.8869 30.5469 14.7059V27.8103C31.032 27.2097 31.4992 26.609 31.9305 25.9902V12.2124Z" fill="url(#paint12_linear_27_20)"/>
<path d="M27.7437 30.8683C28.1929 30.4133 28.6421 29.9583 29.0913 29.485V17.0723C28.6601 17.7457 28.2108 18.4009 27.7437 19.0561V30.8683Z" fill="url(#paint13_linear_27_20)"/>
<path d="M24.8867 33.4889C25.3539 33.0884 25.8211 32.688 26.2703 32.2694V21.0215C25.8211 21.6039 25.3539 22.1863 24.8867 22.7505V33.4889Z" fill="url(#paint14_linear_27_20)"/>
</g>
<defs>
<linearGradient id="paint0_linear_27_20" x1="12.9745" y1="13.8741" x2="55.2779" y2="13.8741" gradientUnits="userSpaceOnUse">
<stop stop-color="#FEE3B2"/>
<stop offset="1" stop-color="#BE8D34"/>
</linearGradient>
<linearGradient id="paint1_linear_27_20" x1="12.9744" y1="35.3721" x2="55.2779" y2="35.3721" gradientUnits="userSpaceOnUse">
<stop stop-color="#FEE3B2"/>
<stop offset="1" stop-color="#BE8D34"/>
</linearGradient>
<linearGradient id="paint2_linear_27_20" x1="12.9743" y1="33.4513" x2="55.2779" y2="33.4513" gradientUnits="userSpaceOnUse">
<stop stop-color="#FEE3B2"/>
<stop offset="1" stop-color="#BE8D34"/>
</linearGradient>
<linearGradient id="paint3_linear_27_20" x1="12.9745" y1="31.5785" x2="55.278" y2="31.5785" gradientUnits="userSpaceOnUse">
<stop stop-color="#FEE3B2"/>
<stop offset="1" stop-color="#BE8D34"/>
</linearGradient>
<linearGradient id="paint4_linear_27_20" x1="12.9746" y1="29.6341" x2="55.2779" y2="29.6341" gradientUnits="userSpaceOnUse">
<stop stop-color="#FEE3B2"/>
<stop offset="1" stop-color="#BE8D34"/>
</linearGradient>
<linearGradient id="paint5_linear_27_20" x1="12.9747" y1="29.675" x2="55.278" y2="29.675" gradientUnits="userSpaceOnUse">
<stop stop-color="#FEE3B2"/>
<stop offset="1" stop-color="#BE8D34"/>
</linearGradient>
<linearGradient id="paint6_linear_27_20" x1="12.9746" y1="31.6214" x2="55.278" y2="31.6214" gradientUnits="userSpaceOnUse">
<stop stop-color="#FEE3B2"/>
<stop offset="1" stop-color="#BE8D34"/>
</linearGradient>
<linearGradient id="paint7_linear_27_20" x1="12.9745" y1="33.4751" x2="55.2779" y2="33.4751" gradientUnits="userSpaceOnUse">
<stop stop-color="#FEE3B2"/>
<stop offset="1" stop-color="#BE8D34"/>
</linearGradient>
<linearGradient id="paint8_linear_27_20" x1="12.9746" y1="35.3916" x2="55.278" y2="35.3916" gradientUnits="userSpaceOnUse">
<stop stop-color="#FEE3B2"/>
<stop offset="1" stop-color="#BE8D34"/>
</linearGradient>
<linearGradient id="paint9_linear_27_20" x1="12.9745" y1="27.1983" x2="55.2779" y2="27.1983" gradientUnits="userSpaceOnUse">
<stop stop-color="#FEE3B2"/>
<stop offset="1" stop-color="#BE8D34"/>
</linearGradient>
<linearGradient id="paint10_linear_27_20" x1="12.9746" y1="23.8334" x2="55.278" y2="23.8334" gradientUnits="userSpaceOnUse">
<stop stop-color="#FEE3B2"/>
<stop offset="1" stop-color="#BE8D34"/>
</linearGradient>
<linearGradient id="paint11_linear_27_20" x1="12.9747" y1="19.8357" x2="55.2781" y2="19.8357" gradientUnits="userSpaceOnUse">
<stop stop-color="#FEE3B2"/>
<stop offset="1" stop-color="#BE8D34"/>
</linearGradient>
<linearGradient id="paint12_linear_27_20" x1="12.9747" y1="20.0145" x2="55.2781" y2="20.0145" gradientUnits="userSpaceOnUse">
<stop stop-color="#FEE3B2"/>
<stop offset="1" stop-color="#BE8D34"/>
</linearGradient>
<linearGradient id="paint13_linear_27_20" x1="12.9746" y1="23.9695" x2="55.278" y2="23.9695" gradientUnits="userSpaceOnUse">
<stop stop-color="#FEE3B2"/>
<stop offset="1" stop-color="#BE8D34"/>
</linearGradient>
<linearGradient id="paint14_linear_27_20" x1="12.9747" y1="27.2594" x2="55.2781" y2="27.2594" gradientUnits="userSpaceOnUse">
<stop stop-color="#FEE3B2"/>
<stop offset="1" stop-color="#BE8D34"/>
</linearGradient>
<clipPath id="clip0_27_20">
<rect width="69" height="53" fill="white"/>
</clipPath>
</defs>
</svg>
